<?xml version="1.0" encoding="utf-8"?>
<!-- Generator: Adobe Illustrator 18.1.0, SVG Export Plug-In . SVG Version: 6.00 Build 0)  -->
<svg version="1.1" id="Layer_1" xmlns="http://www.w3.org/2000/svg" xmlns:xlink="http://www.w3.org/1999/xlink" x="0px" y="0px"
	 viewBox="0 0 1920 1080" enable-background="new 0 0 1920 1080" xml:space="preserve">
<path fill="#B79A65" d="M737.4,691.1l11.3,18.1l185-72.5c0,0-32.6-10.7-6.5-92.9L737.4,691.1z"/>
<path fill="#CEB891" d="M769.2,491.7c0,0,69.2-6.1,81.3-21.2L720.9,670.9l-10.6-9.2L769.2,491.7z"/>
<path fill="#E5D4B1" d="M737.4,691.1l190.9-147.7c0,0-89.8,26.5-80-72.5l-127.5,200L737.4,691.1z"/>
<path fill="#DBCF3A" d="M769.2,491.7l276.5-283.3l47.6,18.1L845.1,474.8C831.1,489.4,769.2,491.7,769.2,491.7z"/>
<path fill="#0A0700" d="M748.8,709.3l-11.3-18.1l-49.1,37C688.3,728.2,723.4,718.4,748.8,709.3z"/>
<polygon fill="#9B9B9B" points="737.4,691.1 726.2,699.7 688.3,728.2 720.9,670.9 "/>
<path fill="#332E24" d="M710.2,661.7l10.6,9.2l-32.1,56.2C688.8,727.1,686.7,723.8,710.2,661.7z"/>
<path fill="#87780A" d="M933.8,636.7l263.7-260.6l-27.2-68L929.2,540.5C929.2,540.5,889.5,615.6,933.8,636.7z"/>
<path fill="#C9BA31" d="M1093.2,226.6l77.1,81.6L935.4,537c-12.1,12-28.6,21.7-45.4,19.5c-1.1-0.1-2.1-0.3-3.2-0.5
	c-42.5-6.6-66.1-56.4-36-87L1093.2,226.6z"/>
</svg>
